# xmcd CD database file
#
# Track frame offsets:
#	150
#	12923
#	23658
#	34555
#	46468
#	57270
#	66545
#	77725
#	90030
#	101735
#	114480
#	127293
#	143673
#
# Disc length: 2090 seconds
#
# Revision: 1
# Processed by: cddbd v1.5.1PL0 Copyright (c) Steve Scherf et al.
# Submitted via: CDex 1.51
#
DISCID=a708280d
DTITLE=Various Artist - Big Country [CD 2/2)
DYEAR=1991
DGENRE=Country
TTITLE0=Stonewall Jackson - I Washed My Hands In Muddy Water
TTITLE1=Dolly Parton - Wasn't God Who Made Honky Tonk Angels
TTITLE2=Kingston Trio - Tom Dooley
TTITLE3=Sheeter Davis - The End Of The World
TTITLE4=Conway Twitty - Let Me Be The Judge
TTITLE5=George Jones - Old Brush Arbors
TTITLE6=Johnny Lee - Candy Store
TTITLE7=Frankie Laine - High Noon
TTITLE8=Donna Fargo - The Happiest Girl In The Whole USA
TTITLE9=Willie Nelson - Any Old Arms Won't Do
TTITLE10=Jimmy Dean - Bumming Around
TTITLE11=Bobby Bare - Me And Bobby McGee
TTITLE12=Kenny Rodgers - Ruby Don't Take Your Love To Town
EXTD=YEAR: 1991
EXTT0=
EXTT1=
EXTT2=
EXTT3=
EXTT4=
EXTT5=
EXTT6=
EXTT7=
EXTT8=
EXTT9=
EXTT10=
EXTT11=
EXTT12=
PLAYORDER=
